<svg xmlns="http://www.w3.org/2000/svg" height="64" version="1.1" viewBox="0 0 54 64" width="54"><path d="m6.04 6e1 0.42-4.65c0.99-9.39 11.67-11.46 20.54-11.46s19.56 2.06 20.54 11.42l0.42 4.69h5l-0.46-5.17c-1.08-10.22-10.08-15.83-25.52-15.83s-24.44 5.61-25.52 15.87l-0.46 5.14h5.02m20.96-51.12c-4.86 0-9.12 4.34-9.12 9.29 0 6.84 3.92 12 9.12 12s9.12-5.16 9.12-12c0-4.95-4.26-9.29-9.12-9.29zm0 26.14c-7.98 0-14-7.24-14-16.83 0-7.68 6.41-14.17 14-14.17s14 6.49 14 14.17c0 9.6-6.02 16.83-14 16.83" fill="currentColor"/></svg>
